<svg xmlns="http://www.w3.org/2000/svg" xmlns:xlink="http://www.w3.org/1999/xlink" width="295.761" height="278.963" viewBox="0 0 295.761 278.963">
  <defs>
    <clipPath id="clip-path">
      <path id="Clip_2" data-name="Clip 2" d="M0,0H63.481V149.995H0Z" transform="translate(0 0.181)" fill="none"/>
    </clipPath>
    <clipPath id="clip-path-2">
      <path id="Clip_2-2" data-name="Clip 2" d="M0,0H8.33V58.61H0Z" transform="translate(0.087 0.251)" fill="none"/>
    </clipPath>
    <clipPath id="clip-path-3">
      <path id="Clip_5" data-name="Clip 5" d="M0,0H52.5V63.3H0Z" transform="translate(0 0.147)" fill="none"/>
    </clipPath>
    <clipPath id="clip-path-4">
      <path id="Clip_10" data-name="Clip 10" d="M0,0H25.458V54.342H0Z" transform="translate(0.06 0.147)" fill="none"/>
    </clipPath>
    <clipPath id="clip-path-5">
      <path id="Clip_2-3" data-name="Clip 2" d="M0,0H48.8V114.961H0Z" transform="translate(0 0.138)" fill="none"/>
    </clipPath>
    <clipPath id="clip-path-6">
      <path id="Clip_2-4" data-name="Clip 2" d="M0,0H61.179V142.559H0Z" transform="translate(0 0.557)" fill="none"/>
    </clipPath>
    <clipPath id="clip-path-7">
      <path id="Clip_2-5" data-name="Clip 2" d="M0,0H68.659V145.1H0Z" transform="translate(0.668 0.533)" fill="none"/>
    </clipPath>
    <clipPath id="clip-path-8">
      <path id="Clip_5-2" data-name="Clip 5" d="M0,0H59.4V163.5H0Z" transform="translate(0 0.565)" fill="none"/>
    </clipPath>
    <clipPath id="clip-path-9">
      <path id="Clip_2-6" data-name="Clip 2" d="M0,0H79.47V106.788H0Z" transform="translate(0.458 0.664)" fill="none"/>
    </clipPath>
    <clipPath id="clip-path-10">
      <path id="Clip_2-7" data-name="Clip 2" d="M0,0H112.548V225.924H0Z" transform="translate(0 0.069)" fill="none"/>
    </clipPath>
    <clipPath id="clip-path-11">
      <path id="Clip_7" data-name="Clip 7" d="M0,225.993H112.583V0H0Z" fill="none"/>
    </clipPath>
    <linearGradient id="linear-gradient" x1="0.5" x2="0.5" y2="1" gradientUnits="objectBoundingBox">
      <stop offset="0" stop-color="#6fb3eb"/>
      <stop offset="1" stop-color="#3c7cd2"/>
    </linearGradient>
    <linearGradient id="linear-gradient-2" x1="0.5" x2="0.5" y2="1" gradientUnits="objectBoundingBox">
      <stop offset="0" stop-color="#ffedad"/>
      <stop offset="1" stop-color="#ffd574"/>
    </linearGradient>
    <clipPath id="clip-path-12">
      <path id="Clip_36" data-name="Clip 36" d="M0,0H8.823V8.823H0Z" transform="translate(0.034 0.203)" fill="none"/>
    </clipPath>
    <filter id="Rectangle" x="113.218" y="52.146" width="141.954" height="98.907" filterUnits="userSpaceOnUse">
      <feOffset dy="10" input="SourceAlpha"/>
      <feGaussianBlur stdDeviation="10" result="blur"/>
      <feFlood flood-color="#858488" flood-opacity="0.102"/>
      <feComposite operator="in" in2="blur"/>
      <feComposite in="SourceGraphic"/>
    </filter>
    <filter id="Rectangle-2" x="140.536" y="96.02" width="141.954" height="98.907" filterUnits="userSpaceOnUse">
      <feOffset dy="10" input="SourceAlpha"/>
      <feGaussianBlur stdDeviation="10" result="blur-2"/>
      <feFlood flood-color="#858488" flood-opacity="0.102"/>
      <feComposite operator="in" in2="blur-2"/>
      <feComposite in="SourceGraphic"/>
    </filter>
    <filter id="Rectangle-3" x="128.946" y="142.378" width="141.954" height="98.907" filterUnits="userSpaceOnUse">
      <feOffset dy="10" input="SourceAlpha"/>
      <feGaussianBlur stdDeviation="10" result="blur-3"/>
      <feFlood flood-color="#858488" flood-opacity="0.102"/>
      <feComposite operator="in" in2="blur-3"/>
      <feComposite in="SourceGraphic"/>
    </filter>
  </defs>
  <g id="Illustration" transform="translate(-6.617)">
    <circle id="Oval" cx="134.5" cy="134.5" r="134.5" transform="translate(17)" fill="#5e7cdf"/>
    <g id="Group_6_Copy" data-name="Group 6 Copy" transform="translate(43.889 72.146)">
      <g id="Group_3" data-name="Group 3" transform="translate(0.415 8.462) rotate(-7)">
        <path id="Clip_2-8" data-name="Clip 2" d="M0,0H63.481V149.995H0Z" transform="translate(0 0.181)" fill="none"/>
        <g id="Group_3-2" data-name="Group 3" clip-path="url(#clip-path)">
          <path id="Fill_1" data-name="Fill 1" d="M23.363,0S-5.241,62.587.851,106.317C2.92,121.16,7.71,131.778,13.137,139.33a25.531,25.531,0,0,0,43.742-3.76c4.078-8.369,7.013-19.651,6.555-34.632C62.081,56.8,23.363,0,23.363,0" transform="translate(0 0.181)" fill="#38107a"/>
        </g>
      </g>
      <path id="Fill_4" data-name="Fill 4" d="M33.949,115.641q-.385-4.533-.77-9.067L61.2,88.4q-.084-.528-.173-1.057L33.085,105.465l-.728-8.572q13.264-8.909,27.258-16.6-.113-.493-.23-.985Q45.477,86.933,32.263,95.776l-.7-8.236L57.4,71.779q-.141-.487-.287-.974L31.471,86.448q-.366-4.318-.733-8.635,11.428-8.4,23.5-15.833c-.11-.316-.223-.629-.335-.944Q41.965,68.37,30.641,76.668l-.754-8.892Q40.247,60.372,51.2,53.9q-.184-.461-.368-.921-10.8,6.375-21.043,13.665-.307-3.621-.615-7.242,9.093-7.071,18.783-13.275-.2-.456-.4-.91Q38.036,51.3,29.076,58.237l-.749-8.827a92.385,92.385,0,0,1,15.694-11.9q-.211-.445-.425-.887A93.437,93.437,0,0,0,28.223,48.18q-.128-1.5-.256-3.007a.51.51,0,0,0-.044-.521q-.093-1.089-.185-2.177a47.83,47.83,0,0,1,13.72-10.211l-.44-.876a48.918,48.918,0,0,0-13.389,9.789q-.281-3.309-.562-6.617a95.442,95.442,0,0,1,11.092-8.715l-.463-.873a95.824,95.824,0,0,0-10.733,8.371l-.522-6.15L34.319,22c.435-.287.872-.57,1.306-.859q-.236-.431-.47-.855c-.643.427-1.294.84-1.931,1.26L26.346,26.08l-.441-5.2q3.109-2.927,6.452-5.567-.249-.434-.494-.858-3.13,2.47-6.063,5.187-.258-3.037-.515-6.072,1.988-1.748,4.124-3.3L28.9,9.426q-1.919,1.391-3.721,2.941-.155-1.832-.31-3.664L27.2,6.627q-.266-.435-.52-.842l-1.914,1.7q-.232-2.737-.464-5.473C23.459.7,22.984,0,22.984,0s-.342.756-.942,2.157q.258,3.051.518,6.1A22.1,22.1,0,0,0,20.373,6.15q-.189.463-.388.955A21.146,21.146,0,0,1,22.7,9.951q.18,2.13.362,4.26a33.35,33.35,0,0,0-4.3-4.03q-.183.466-.371.951a31.739,31.739,0,0,1,4.485,4.342.493.493,0,0,0,.312.173l.665,7.834q-3.663-3.541-7.561-6.808-.178.484-.359.979,4.154,3.5,8.047,7.311.3,3.524.6,7.048-5.11-4.786-10.449-9.307l-.344.994q5.583,4.737,10.917,9.77l.733,8.639Q18.877,35.54,11.839,29.5q-.164.5-.328,1.015,7.278,6.27,14.051,13.116.242,2.847.484,5.7L9.366,37.448q-.147.495-.293.994L26.154,50.609q.469,5.523.938,11.045A240.5,240.5,0,0,0,7.453,44.168q-.14.517-.28,1.036A240.32,240.32,0,0,1,27.22,63.168l.859,10.115L4.549,55.839q-.118.524-.233,1.048l23.873,17.7q.164,1.928.328,3.856l.4,4.692L2.761,64.57q-.1.531-.193,1.064L29.024,84.411q.306,3.619.614,7.237L1.089,75.287c-.045.352-.088.706-.13,1.058l28.622,16.4a.482.482,0,0,0,.155.056q.439,5.171.878,10.342L.189,84.567q-.036.554-.068,1.107l30.6,18.684q.33,3.874.658,7.749L0,97.447Q.024,98,.053,98.56l31.418,14.68q.35,4.125.7,8.251A294.935,294.935,0,0,1,1.223,109q.1.6.21,1.191a294.771,294.771,0,0,0,30.828,12.363L33.4,135.939q-14.161-4.765-27.828-10.868.26.669.529,1.318Q19.462,132.3,33.323,136.95a.515.515,0,0,0,.162.026q.239,2.816.478,5.633l-22.931-6.6q.4.641.812,1.258l22.208,6.389q.237,2.786.474,5.573,1.131-.06,2.256-.223-.065-.772-.132-1.544L54.8,136.916q.477-.8.905-1.658l-19.15,11.125q-.211-2.491-.423-4.982L58.681,128.04c.155-.462.307-.933.455-1.408q-11.546,6.842-23.091,13.686l-.656-7.729L61.227,117.9c.071-.409.138-.824.2-1.241L35.3,131.516l-.572-6.741-.016-.186A303.119,303.119,0,0,1,62.248,109q.034-.56.062-1.128a304.958,304.958,0,0,0-27.695,15.615q-.037-.433-.074-.867a.422.422,0,0,0-.015-.182l-.48-5.648q13.653-10.179,28.2-19-.034-.55-.075-1.1-14.548,8.785-28.227,18.954" transform="translate(1.234 8.395) rotate(-7)" fill="#5a388e"/>
    </g>
    <g id="Group_16_Copy" data-name="Group 16 Copy" transform="translate(24.022 128.437)">
      <g id="Group_3-3" data-name="Group 3" transform="matrix(0.839, -0.545, 0.545, 0.839, 47.315, 57.026)">
        <path id="Clip_2-9" data-name="Clip 2" d="M0,0H8.33V58.61H0Z" transform="translate(0.087 0.251)" fill="none"/>
        <g id="Group_3-4" data-name="Group 3" clip-path="url(#clip-path-2)">
          <path id="Fill_1-2" data-name="Fill 1" d="M4.271,1.194A99.636,99.636,0,0,1,6.458,23.243a100.487,100.487,0,0,1-2.7,21.988A98.659,98.659,0,0,1,.089,57.272a.924.924,0,0,0,.292,1.17.942.942,0,0,0,1.221-.12l.88-1.071c.752-.916-.618-2.164-1.373-1.244l-.88,1.071,1.513,1.05a102.024,102.024,0,0,0,5.62-22.058,102.716,102.716,0,0,0,.6-22.734A102.152,102.152,0,0,0,6.049.63.946.946,0,0,0,4.873.039a.936.936,0,0,0-.6,1.155" transform="translate(0.087 0.251)" fill="#ea6887"/>
        </g>
      </g>
      <g id="Group_6" data-name="Group 6" transform="matrix(0.839, -0.545, 0.545, 0.839, 0.726, 29.148)">
        <path id="Clip_5-3" data-name="Clip 5" d="M0,0H52.5V63.3H0Z" transform="translate(0 0.147)" fill="none"/>
        <g id="Group_6-2" data-name="Group 6" clip-path="url(#clip-path-3)">
          <path id="Fill_4-2" data-name="Fill 4" d="M17.251,63.3a17.762,17.762,0,0,1-3.939-.472,13.015,13.015,0,0,1-7.585-5.057,23.946,23.946,0,0,1-3.783-8.165A43.71,43.71,0,0,1,.5,38.664c3.522,5.2,12.223,6.944,15.652,6.944,1.115,0,1.845-.159,2.056-.447a.305.305,0,0,0,.063-.3c-.164-.429-1.478-.707-3.467-1.129A41.026,41.026,0,0,1,3.981,40.224,7.014,7.014,0,0,1,.626,35.992a15.885,15.885,0,0,1-.593-5.7,32.194,32.194,0,0,1,1.274-7.152C3.147,27,9.8,28.369,14.944,28.369a9.491,9.491,0,0,0,2.466-.206c.049-.02.072-.041.07-.064a6.824,6.824,0,0,0-2.153-.62,51.028,51.028,0,0,1-7.112-2.016c-2.93-1.146-4.653-2.487-5.123-3.987-.819-2.616-.016-5.178,2.456-7.833a38.066,38.066,0,0,1,7.138-5.5c.295-.19.577-.372.843-.546A12.308,12.308,0,0,0,18.538,0l.019.006a53.311,53.311,0,0,1,6.7,3.151,24.125,24.125,0,0,1,4.658,3.294,5.944,5.944,0,0,1,2.2,3.859,21.024,21.024,0,0,1-1.606,7.408c-.559,1.577-.963,2.717-.669,3.132a.436.436,0,0,0,.386.166,1.324,1.324,0,0,0,.279-.034c.656-.144,1.356-.93,2.023-2.273,1.443-2.9,2.44-7.876,1.841-9.175l.014.008c.542.4,5.328,3.988,6.416,7.063.628,1.775-1.7,6.511-3.567,10.316-1.415,2.881-2.637,5.369-2.291,5.924a.256.256,0,0,0,.234.116c.576,0,1.545-.689,2.658-1.879,2.381-2.547,5.823-7.977,5.548-12.5a.152.152,0,0,1,.021.032,108.955,108.955,0,0,1,5.2,10.2,57.239,57.239,0,0,1,3.139,8.739c.806,3.168.968,5.708.481,7.548a16.693,16.693,0,0,1-4.427,7.918,11.278,11.278,0,0,1-7.943,3.168,18.757,18.757,0,0,1-9.424-2.968v.006a17.188,17.188,0,0,1-2.807,5.032,13.848,13.848,0,0,1-4.056,3.464A12.875,12.875,0,0,1,17.252,63.3h0ZM14.289,47.541a2.625,2.625,0,0,0-2.562,1.224,1.607,1.607,0,0,0-.01,1,1.393,1.393,0,0,0,.706.875,3.373,3.373,0,0,0,1.423.216,32.615,32.615,0,0,0,7.075-1.15c1.162-.325,1.547-.879,1.665-1.287a1.528,1.528,0,0,0-.343-1.39.654.654,0,0,0-.49-.135,11.3,11.3,0,0,0-1.964.324l-.39.084a15,15,0,0,1-2.946.408,4.863,4.863,0,0,1-.722-.05A9.647,9.647,0,0,0,14.289,47.541ZM39.06,37.213a1.706,1.706,0,0,0-.487.07,4.873,4.873,0,0,0-1.929,1.26A8.519,8.519,0,0,1,33.9,40.364c-2.49,1-2.654,2.491-2.655,2.506-.138.62-.119,1.03.06,1.253a.607.607,0,0,0,.508.2c.814,0,2.328-.825,4.246-1.869.645-.352,1.31-.714,2.019-1.084,2.627-1.372,2.644-2.6,2.53-3.069A1.558,1.558,0,0,0,39.06,37.213Zm4.978-3.084a.52.52,0,0,0-.137.017,4.9,4.9,0,0,0-2.38,1.468,1.469,1.469,0,0,0-.2,1.527.583.583,0,0,0,.571.405,4.008,4.008,0,0,0,1.131-.3c.376-.132.843-.3,1.4-.449,1.038-.283,1.193-.812,1.14-1.205A1.923,1.923,0,0,0,44.038,34.13ZM15.169,32.519c-1.7,0-2.8.444-2.96,1.188a1.088,1.088,0,0,0,.106.932,1.1,1.1,0,0,0,.907.295,9.084,9.084,0,0,0,1.105-.1l.022,0a9.547,9.547,0,0,1,1.161-.1h.1l.14,0c1.2,0,4.538-.345,4.967-1.121a.3.3,0,0,0,.031-.3c-.152-.284-.93-.347-1.914-.427-.586-.048-1.251-.1-1.9-.212A10.7,10.7,0,0,0,15.169,32.519Zm-6.522-.208a3.354,3.354,0,0,0-1.745.816.828.828,0,0,0-.388.825.782.782,0,0,0,.693.541,2.134,2.134,0,0,0,.357.024,12.641,12.641,0,0,0,2.561-.353.23.23,0,0,0,.171-.18c.06-.3-.338-.9-.925-1.4A1.076,1.076,0,0,0,8.647,32.311ZM27.831,11.727c-.428,0-1.273.756-2.262,2.021A3.338,3.338,0,0,0,24.7,16.2a1.5,1.5,0,0,0,1.5,1.324,1.467,1.467,0,0,0,.88-.293l.018-.013c.511-.387.747-2.277.955-3.945.026-.211.052-.417.078-.616a1.139,1.139,0,0,0-.1-.836A.269.269,0,0,0,27.831,11.727Z" transform="translate(0 0.147)" fill="#f4879c"/>
        </g>
      </g>
      <path id="Fill_7" data-name="Fill 7" d="M2.961.3C2.069.253,1.186.188.324.12A.29.29,0,1,0,.293.7c.891.071,1.8.136,2.724.184A1.566,1.566,0,0,1,2.961.3" transform="matrix(0.839, -0.545, 0.545, 0.839, 34.867, 65.327)" fill="#ea6887"/>
      <g id="Group_11" data-name="Group 11" transform="matrix(0.839, -0.545, 0.545, 0.839, 9.205, 23.808)">
        <path id="Clip_10-2" data-name="Clip 10" d="M0,0H25.458V54.342H0Z" transform="translate(0.06 0.147)" fill="none"/>
        <g id="Group_11-2" data-name="Group 11" clip-path="url(#clip-path-4)">
          <path id="Fill_9" data-name="Fill 9" d="M17.512,45.394l.071-.071a.335.335,0,0,0,.065-.1q1.735-.645,3.413-1.42a2.034,2.034,0,0,1,.018-.713q-1.861.873-3.8,1.585c-.372-1.173-.719-2.35-1.026-3.533-.706-2.718-1.236-5.465-1.674-8.229A20.906,20.906,0,0,0,25.442,20.356a.326.326,0,0,0-.62-.2A20.259,20.259,0,0,1,14.478,32.246c-.527-3.45-.92-6.923-1.331-10.393A17.941,17.941,0,0,0,15.87,17.5a1.543,1.543,0,0,1-.6-.234,16.984,16.984,0,0,1-2.229,3.705c-.346-2.884-.714-5.764-1.194-8.626A69.7,69.7,0,0,0,8.766.114C8.577.039,8.472,0,8.472,0S8.427.278,8.3.735c2.325,6.591,3.287,13.569,4.119,20.51a18.261,18.261,0,0,1-7.3-4.857.325.325,0,0,0-.478.44,18.953,18.953,0,0,0,7.824,5.124c.012,0,.024.006.035.009q.191,1.613.382,3.22C13.43,29.7,14.019,34.223,15,38.672a27.8,27.8,0,0,1-14.59-1.9c-.387-.162-.583.456-.2.616A28.42,28.42,0,0,0,15.138,39.3c.007.031.014.061.021.093.452,1.962,1.012,3.891,1.623,5.8a12.957,12.957,0,0,1-4.241,2.657,1.333,1.333,0,0,1-.109.732A13.636,13.636,0,0,0,17,45.883c.815,2.5,1.7,4.978,2.541,7.473q.165.493.327.986c.188-.43.311-.761.378-.953-.891-2.672-1.867-5.327-2.735-8" transform="translate(0.06 0.147)" fill="#ea6887"/>
        </g>
      </g>
      <path id="Fill_12" data-name="Fill 12" d="M.965.363A1.906,1.906,0,0,1,.875,0C.587.308.294.609,0,.906a1.589,1.589,0,0,1,.322.6Q.73,1.093,1.13.669A.963.963,0,0,1,.965.363" transform="matrix(0.839, -0.545, 0.545, 0.839, 54.817, 38.178)" fill="#ea6887"/>
      <path id="Fill_14" data-name="Fill 14" d="M.247.283a16.283,16.283,0,0,1-.12,1.972,3.933,3.933,0,0,1,.69-.56Q.873,1.01.873.317c0-.4-.627-.434-.626-.034" transform="matrix(0.839, -0.545, 0.545, 0.839, 28.729, 23.448)" fill="#ea6887"/>
    </g>
    <g id="Group_6-3" data-name="Group 6" transform="translate(0.501 171.697) rotate(-13)">
      <g id="Group_3-5" data-name="Group 3" transform="matrix(0.848, -0.53, 0.53, 0.848, 0.051, 26.571)">
        <path id="Clip_2-10" data-name="Clip 2" d="M0,0H48.8V114.961H0Z" transform="translate(0 0.138)" fill="none"/>
        <g id="Group_3-6" data-name="Group 3" clip-path="url(#clip-path-5)">
          <path id="Fill_1-3" data-name="Fill 1" d="M17.961,0S-4.029,47.968.654,81.485C2.245,92.861,5.928,101,10.1,106.787a19.658,19.658,0,0,0,33.628-2.882c3.135-6.414,5.392-15.061,5.039-26.543C47.727,43.533,17.961,0,17.961,0" transform="translate(0 0.138)" fill="#38107a"/>
        </g>
      </g>
      <path id="Fill_4-3" data-name="Fill 4" d="M26.31,88.788q-.294-3.481-.587-6.962L47.47,67.838q-.065-.4-.133-.811L25.651,80.975,25.1,74.393q10.3-6.856,21.158-12.776-.087-.378-.177-.756-10.8,5.87-21.053,12.675l-.533-6.323L44.54,55.081q-.109-.374-.222-.747l-19.9,12.04q-.279-3.316-.559-6.63Q32.732,53.279,42.1,47.56c-.085-.242-.172-.483-.259-.725Q32.577,52.48,23.786,58.864l-.575-6.827q8.043-5.7,16.546-10.681-.142-.354-.285-.707-8.384,4.907-16.335,10.516-.235-2.78-.469-5.56,7.059-5.44,14.581-10.214-.154-.35-.308-.7-7.392,4.686-14.348,10.02l-.571-6.777A71.874,71.874,0,0,1,34.2,28.779q-.164-.341-.329-.68a72.7,72.7,0,0,0-11.935,8.892q-.1-1.155-.195-2.309a.388.388,0,0,0-.034-.4q-.071-.836-.141-1.671a37.217,37.217,0,0,1,10.651-7.856l-.341-.672a38.073,38.073,0,0,0-10.395,7.531q-.215-2.541-.429-5.08a74.22,74.22,0,0,1,8.612-6.7l-.358-.669A74.524,74.524,0,0,0,20.98,25.6l-.4-4.722,6.115-4c.337-.221.677-.439,1.014-.661l-.364-.656c-.5.328-1,.647-1.5.97l-5.339,3.491-.337-3.994q2.414-2.251,5.01-4.282l-.382-.659q-2.43,1.9-4.708,3.99-.2-2.332-.393-4.662,1.544-1.345,3.2-2.536l-.391-.649Q21.02,8.3,19.621,9.494q-.119-1.407-.237-2.813l1.809-1.6q-.206-.334-.4-.646L19.305,5.749q-.177-2.1-.354-4.2C18.3.541,17.929,0,17.929,0s-.266.581-.733,1.658q.2,2.342.395,4.685A17,17,0,0,0,15.9,4.726q-.147.355-.3.734a16.241,16.241,0,0,1,2.1,2.182q.138,1.636.276,3.271a25.656,25.656,0,0,0-3.334-3.09q-.143.358-.289.731a24.4,24.4,0,0,1,3.474,3.329.382.382,0,0,0,.242.133l.507,6.015q-2.837-2.715-5.857-5.219l-.279.752q3.218,2.684,6.233,5.606.228,2.706.456,5.412-3.958-3.67-8.094-7.135l-.268.763q4.325,3.632,8.457,7.49l.559,6.633Q14.706,27.3,9.255,22.667q-.128.388-.256.78Q14.637,28.254,19.882,33.5q.185,2.186.369,4.373L7.328,28.771q-.115.38-.229.763l13.234,9.325q.358,4.241.715,8.481A185.157,185.157,0,0,0,5.837,33.934q-.109.4-.218.8A185,185,0,0,1,21.147,48.5l.655,7.766L3.572,42.9q-.092.4-.182.8l18.5,13.565q.125,1.481.25,2.961l.3,3.6L2.177,49.605q-.076.408-.151.817l20.5,14.39q.234,2.779.469,5.557L.869,57.837c-.036.271-.069.542-.1.813l22.18,12.564a.375.375,0,0,0,.12.043q.335,3.97.67,7.941L.161,64.963q-.029.426-.054.85L23.815,80.127q.252,2.975.5,5.95L0,74.854q.018.428.04.855L24.39,86.947q.267,3.167.534,6.335A229.4,229.4,0,0,1,.936,83.724q.078.461.162.915a229.282,229.282,0,0,0,23.9,9.46l.867,10.277Q14.882,100.732,4.29,96.06q.2.513.409,1.011,10.358,4.526,21.1,8.08a.4.4,0,0,0,.126.019q.182,2.162.365,4.325L8.515,104.455q.311.492.629.965L26.36,110.3q.181,2.139.361,4.279.877-.047,1.75-.174-.05-.593-.1-1.186L42.461,105.1q.37-.617.7-1.274L28.3,112.393q-.161-1.913-.323-3.825l17.5-10.285c.121-.355.239-.717.354-1.082L27.908,107.735l-.5-5.934,20.055-11.31c.056-.314.108-.633.159-.953L27.338,100.977,26.9,95.8l-.012-.143a236.578,236.578,0,0,1,21.375-12q.027-.43.049-.866a238.021,238.021,0,0,0-21.5,12.021q-.028-.332-.056-.665a.32.32,0,0,0-.011-.14l-.366-4.336q10.6-7.831,21.894-14.62-.026-.423-.057-.847Q36.929,80.964,26.31,88.788" transform="matrix(0.848, -0.53, 0.53, 0.848, 0.169, 26.454)" fill="#5a388e"/>
    </g>
    <g id="Group_6_Copy-2" data-name="Group 6 Copy" transform="matrix(0.588, 0.809, -0.809, 0.588, 266.441, 142.944)">
      <g id="Group_3-7" data-name="Group 3" transform="translate(0.064 0.134)">
        <path id="Clip_2-11" data-name="Clip 2" d="M0,0H61.179V142.559H0Z" transform="translate(0 0.557)" fill="none"/>
        <g id="Group_3-8" data-name="Group 3" clip-path="url(#clip-path-6)">
          <path id="Fill_1-4" data-name="Fill 1" d="M22.516,0S-5.051,59.484.82,101.047c1.994,14.107,6.61,24.2,11.84,31.376a24.778,24.778,0,0,0,42.156-3.573c3.93-7.954,6.759-18.677,6.317-32.915C59.83,53.984,22.516,0,22.516,0" transform="translate(0 0.557)" fill="#38107a"/>
        </g>
      </g>
      <path id="Fill_4-4" data-name="Fill 4" d="M33.386,110.979q-.382-4.35-.763-8.7L60.149,84.854q-.083-.506-.171-1.014L32.529,101.213l-.722-8.226q13.032-8.54,26.783-15.909-.112-.473-.227-.946Q44.7,83.438,31.713,91.914l-.693-7.9L56.4,68.9q-.139-.468-.283-.934L30.928,82.963q-.363-4.144-.727-8.287Q41.429,66.621,53.287,59.5c-.109-.3-.22-.6-.33-.906Q41.23,65.622,30.1,73.577l-.748-8.533q10.179-7.1,20.942-13.3-.181-.443-.363-.884-10.614,6.109-20.675,13.1-.3-3.475-.61-6.95Q37.584,50.226,47.1,44.279q-.2-.438-.393-.873-9.356,5.836-18.159,12.484l-.743-8.471A90.445,90.445,0,0,1,43.228,36.009q-.208-.427-.418-.851a91.5,91.5,0,0,0-15.1,11.08q-.127-1.443-.253-2.886a.479.479,0,0,0-.044-.5q-.092-1.045-.183-2.089a46.852,46.852,0,0,1,13.479-9.789l-.434-.841a47.947,47.947,0,0,0-13.155,9.384q-.279-3.176-.557-6.35a93.326,93.326,0,0,1,10.9-8.355L37,23.975A93.723,93.723,0,0,0,26.457,32l-.517-5.9,7.74-4.981c.427-.275.857-.546,1.283-.823q-.232-.414-.463-.821c-.632.409-1.271.805-1.9,1.208l-6.757,4.348-.438-4.992q3.054-2.807,6.339-5.337-.245-.416-.486-.824-3.075,2.368-5.956,4.973-.256-2.914-.511-5.827,1.953-1.676,4.051-3.161l-.5-.812q-1.886,1.333-3.655,2.819-.154-1.758-.308-3.516l2.289-1.99q-.262-.417-.512-.809l-1.88,1.634q-.23-2.626-.46-5.252C22.989.677,22.521,0,22.521,0s-.336.725-.925,2.07Q21.853,5,22.11,7.926A21.553,21.553,0,0,0,19.959,5.9q-.185.444-.38.916a20.56,20.56,0,0,1,2.674,2.732q.179,2.044.359,4.088a32.554,32.554,0,0,0-4.234-3.87q-.18.447-.364.912a30.945,30.945,0,0,1,4.412,4.17.489.489,0,0,0,.307.167l.659,7.518q-3.6-3.4-7.438-6.538-.175.464-.352.939,4.086,3.362,7.915,7.022.3,3.382.593,6.764-5.027-4.6-10.278-8.938l-.338.953q5.491,4.55,10.739,9.383l.727,8.291Q18.51,34.1,11.588,28.3q-.161.484-.322.974,7.159,6.022,13.822,12.6.24,2.732.48,5.466L9.163,35.926q-.144.475-.288.953l16.8,11.688q.465,5.3.93,10.6A235.184,235.184,0,0,0,7.287,42.373q-.137.5-.274.994A234.954,234.954,0,0,1,26.732,60.62l.852,9.707L4.441,53.57q-.115.5-.228,1.005l23.481,17q.163,1.851.325,3.7l.4,4.5L2.69,61.948q-.1.51-.189,1.021l26.02,18.038q.3,3.473.609,6.946L1.054,72.231c-.044.338-.086.677-.127,1.015L29.075,89.007a.482.482,0,0,0,.152.054q.435,4.962.871,9.925L.177,81.135Q.141,81.667.11,82.2L30.2,100.148q.327,3.718.652,7.436L0,93.495q.024.535.053,1.068l30.894,14.11q.347,3.959.695,7.918A294.5,294.5,0,0,1,1.211,104.581q.1.576.207,1.143a294.368,294.368,0,0,0,30.313,11.886l1.127,12.846Q18.934,125.874,5.5,120.007q.256.642.521,1.265,13.141,5.684,26.77,10.155a.518.518,0,0,0,.16.025q.237,2.7.474,5.405l-22.546-6.347q.4.615.8,1.207l21.835,6.147q.235,2.674.47,5.348,1.112-.056,2.217-.212-.065-.741-.131-1.482L53.9,131.41q.468-.77.888-1.59L35.974,140.482q-.209-2.39-.419-4.781l22.151-12.806c.152-.443.3-.9.446-1.351Q46.807,128.1,35.463,134.66l-.651-7.417L60.2,113.164c.07-.393.135-.791.2-1.191l-25.678,14.24-.567-6.47-.016-.178a299.443,299.443,0,0,1,27.06-14.94q.033-.537.06-1.082a301.292,301.292,0,0,0-27.212,14.964q-.036-.416-.073-.832a.4.4,0,0,0-.015-.175l-.476-5.42q13.413-9.758,27.711-18.211-.034-.528-.074-1.059-14.295,8.42-27.733,18.168" transform="translate(0.734 0.62)" fill="#5a388e"/>
    </g>
    <g id="Group_77_Copy" data-name="Group 77 Copy" transform="translate(199.671 96.701) rotate(9)">
      <g id="Group_3-9" data-name="Group 3" transform="translate(0.763 0.23)">
        <path id="Clip_2-12" data-name="Clip 2" d="M0,0H68.659V145.1H0Z" transform="translate(0.668 0.533)" fill="none"/>
        <g id="Group_3-10" data-name="Group 3" clip-path="url(#clip-path-7)">
          <path id="Fill_1-5" data-name="Fill 1" d="M50.53,108.4c-1.76-4.626-3.134-7.1,2.426-10.02s3.195-6.826,1.436-11.451-.546-9.911,6.887-16.79,2.922-10.955,1.812-16.1S62,47.625,66.575,41.625s.775-10.709-3.269-15.5S63.4,0,63.4,0,54.7,2.969,50.955,14.2s-8.367,1.979-14.647,10.895.545,14.866-7.273,17.4-13.212,6.6-13,19.155S5.025,72.652,3.15,81.57,11.4,92.034,6.335,98.419s-8.92,8.035-4.189,14.753-4.628,11.67-.129,21.172c.166.35.356.717.565,1.094a18.576,18.576,0,0,0,28.7,4.881c2.006-1.835,3.37-3.857,3.439-5.99.279-8.534,1.324-8.369,8.92-9.137s8.647-12.163,6.887-16.789" transform="translate(0.668 0.533)" fill="#f4879c"/>
        </g>
      </g>
      <g id="Group_6-4" data-name="Group 6" transform="translate(0 10.913)">
        <path id="Clip_5-4" data-name="Clip 5" d="M0,0H59.4V163.5H0Z" transform="translate(0 0.565)" fill="none"/>
        <g id="Group_6-5" data-name="Group 6" clip-path="url(#clip-path-8)">
          <path id="Fill_4-5" data-name="Fill 4" d="M56.212,51.28A41.939,41.939,0,0,0,44.9,52.667c1.6-4.515,3.1-9.073,4.432-13.693q.7-2.42,1.356-4.849A.553.553,0,0,0,50.851,34,30.751,30.751,0,0,1,59.1,27.366c.651-.358.137-1.393-.516-1.033a31.727,31.727,0,0,0-7.284,5.5C54.012,21.552,56.271,11.151,58.526.759c.156-.719-.938-1.093-1.1-.366-2.157,9.94-4.318,19.886-6.876,29.731a32.846,32.846,0,0,0-5.545-7.809c-.513-.536-1.383.224-.868.762a31.912,31.912,0,0,1,5.887,8.593.6.6,0,0,0,.086.133q-.319,1.2-.647,2.408Q46.9,43.646,43.643,52.841a73.482,73.482,0,0,0-8.586-9.115c-.549-.491-1.422.267-.869.762a73.465,73.465,0,0,1,9,9.635Q40.9,60.549,38.334,66.885c-1.853,4.593-3.777,9.157-5.71,13.716a90.957,90.957,0,0,0-7.351-9.94c-.483-.568-1.35.2-.868.762a89.051,89.051,0,0,1,7.514,10.2.621.621,0,0,0,.189.192c-2.376,5.6-4.76,11.2-7.043,16.839q-.65,1.6-1.282,3.214a39.714,39.714,0,0,0-6.79-7.065c-.578-.47-1.216.494-.644.959a38.523,38.523,0,0,1,6.821,7.206.58.58,0,0,0,.131.129,268.072,268.072,0,0,0-9.11,27.377C11.163,141.7,8.248,153.661.163,162.461c-.5.543.259,1.416.761.869,7.042-7.666,10.31-17.664,13.016-27.51,1.432-5.207,2.786-10.431,4.429-15.577,1.765-5.528,3.754-10.981,5.866-16.385l.025-.064a66.629,66.629,0,0,1,12.044-.544.578.578,0,0,0,.062-1.154,68.18,68.18,0,0,0-11.625.475c2.752-6.982,5.675-13.892,8.586-20.805l12.757-1.61c.737-.093.5-1.223-.237-1.131l-12,1.515c3.694-8.786,7.347-17.586,10.58-26.548a40.806,40.806,0,0,1,11.727-1.559c.741.01.808-1.144.061-1.154" transform="translate(0 0.565)" fill="#ea6887"/>
        </g>
      </g>
      <path id="Fill_7-2" data-name="Fill 7" d="M.142,1.328,1.155,2.567a.9.9,0,0,0,1.2.269.873.873,0,0,0,.269-1.2L1.607.4A.9.9,0,0,0,.412.131a.873.873,0,0,0-.269,1.2" transform="translate(45.323 27.737)" fill="#ea6887"/>
      <path id="Fill_9-2" data-name="Fill 9" d="M.018.911,0,2.556a.876.876,0,0,0,.91.821.884.884,0,0,0,.821-.91L1.749.822A.877.877,0,0,0,.838,0a.884.884,0,0,0-.821.91" transform="translate(49.307 25.45)" fill="#ea6887"/>
      <path id="Fill_11" data-name="Fill 11" d="M.142,1.327,1.3,2.751a.894.894,0,0,0,1.2.269.874.874,0,0,0,.269-1.2L1.607.4A.9.9,0,0,0,.411.131a.873.873,0,0,0-.269,1.2" transform="translate(40.679 29.146)" fill="#ea6887"/>
      <path id="Fill_13" data-name="Fill 13" d="M.474.683c-.147.436-.3.873-.443,1.309A.869.869,0,0,0,.7,3.02a.9.9,0,0,0,1.028-.668q.221-.655.443-1.309A.871.871,0,0,0,1.5.015.893.893,0,0,0,.474.683" transform="translate(57.513 31.108)" fill="#ea6887"/>
      <path id="Fill_15" data-name="Fill 15" d="M1.425.273A3.279,3.279,0,0,1,1.188.54C1.147.582,1.1.624,1.059.663c.048-.037.049-.037,0,0A2.85,2.85,0,0,1,.8.843C.776.86.509,1.006.612.959A.892.892,0,0,0,.048,2.048a.876.876,0,0,0,1.089.563A4.2,4.2,0,0,0,2.7,1.45.883.883,0,0,0,2.65.225.878.878,0,0,0,1.425.273" transform="translate(61.36 34.897)" fill="#ea6887"/>
      <path id="Fill_17" data-name="Fill 17" d="M2.56.073.823,0A.875.875,0,0,0,0,.911a.887.887,0,0,0,.911.821L2.649,1.8A.874.874,0,0,0,3.47.894.886.886,0,0,0,2.56.073" transform="translate(60.179 40.151)" fill="#ea6887"/>
      <path id="Fill_19" data-name="Fill 19" d="M.91,1.757,2.7,1.732a.878.878,0,0,0,.821-.91A.882.882,0,0,0,2.607,0L.822.025A.877.877,0,0,0,0,.936a.88.88,0,0,0,.909.821" transform="translate(26.616 55.195)" fill="#ea6887"/>
      <path id="Fill_21" data-name="Fill 21" d="M.271,1.513,1.616,2.8c.808.772,1.983-.5,1.178-1.273L1.448.24C.639-.533-.536.742.271,1.513" transform="translate(29.331 50.2)" fill="#ea6887"/>
      <path id="Fill_23" data-name="Fill 23" d="M.1.682A3.278,3.278,0,0,0,.147,2.44.875.875,0,0,0,1.236,3,.883.883,0,0,0,1.8,1.915c-.011-.037-.072-.333-.044-.143a2.41,2.41,0,0,1-.025-.3c0-.05,0-.1,0-.148q-.015.15,0,0c.018-.1.034-.194.06-.291A.874.874,0,0,0,1.124.014.885.885,0,0,0,.1.682" transform="translate(34.855 48.281)" fill="#ea6887"/>
      <path id="Fill_25" data-name="Fill 25" d="M.373.683Q.2,1.245.028,1.806A.871.871,0,0,0,.7,2.834a.89.89,0,0,0,1.028-.669Q1.9,1.6,2.068,1.042A.872.872,0,0,0,1.4.014.89.89,0,0,0,.373.683" transform="translate(38.922 50.173)" fill="#ea6887"/>
      <path id="Fill_27" data-name="Fill 27" d="M.016.913Q.007,1.5,0,2.088a.871.871,0,0,0,.909.821A.888.888,0,0,0,1.73,2q.009-.587.017-1.174A.872.872,0,0,0,.837,0a.888.888,0,0,0-.821.91" transform="translate(54.324 58.083)" fill="#ea6887"/>
      <path id="Fill_29" data-name="Fill 29" d="M1.727.125.4.859a.872.872,0,0,0-.269,1.2.888.888,0,0,0,1.2.269L2.655,1.59a.874.874,0,0,0,.268-1.2.886.886,0,0,0-1.2-.269" transform="translate(58.48 60.332)" fill="#ea6887"/>
      <path id="Fill_31" data-name="Fill 31" d="M2.8,1.01,1.264.1A.875.875,0,0,0,.1.472.882.882,0,0,0,.468,1.64l1.54.91a.876.876,0,0,0,1.168-.372A.882.882,0,0,0,2.8,1.01" transform="translate(57.822 65.069)" fill="#ea6887"/>
      <path id="Fill_33" data-name="Fill 33" d="M.142,1.327,1.3,2.753a.894.894,0,0,0,1.2.269.874.874,0,0,0,.269-1.2L1.607.4A.9.9,0,0,0,.411.131a.874.874,0,0,0-.269,1.2" transform="translate(54.629 67.115)" fill="#ea6887"/>
      <path id="Fill_35" data-name="Fill 35" d="M2.7.03.823,0A.877.877,0,0,0,0,.91a.885.885,0,0,0,.91.821l1.879.03a.875.875,0,0,0,.821-.91A.884.884,0,0,0,2.7.03" transform="translate(18.26 85.084)" fill="#ea6887"/>
      <path id="Fill_37" data-name="Fill 37" d="M3.907.833l-2.9-.8c-1.075-.3-1.433,1.4-.359,1.7l2.9.8c1.075.3,1.433-1.4.359-1.7" transform="translate(15.046 78.779)" fill="#ea6887"/>
      <path id="Fill_39" data-name="Fill 39" d="M.163,1.3,1.616,3.32c.649.9,2.116-.02,1.465-.926L1.628.37C.979-.534-.488.39.163,1.3" transform="translate(19.823 74.644)" fill="#ea6887"/>
      <path id="Fill_41" data-name="Fill 41" d="M0,.914q.015.658.029,1.316a.875.875,0,0,0,.909.821.886.886,0,0,0,.822-.91Q1.745,1.482,1.732.824A.876.876,0,0,0,.821,0,.885.885,0,0,0,0,.914" transform="translate(26.361 73.529)" fill="#ea6887"/>
      <path id="Fill_43" data-name="Fill 43" d="M1.02.455.1,2.228a.867.867,0,0,0,1.539.8L2.56,1.251a.867.867,0,0,0-1.54-.8" transform="translate(29.74 78.257)" fill="#ea6887"/>
      <path id="Fill_45" data-name="Fill 45" d="M.276.686.012,2.326A.887.887,0,0,0,.68,3.354a.875.875,0,0,0,1.028-.668q.132-.821.264-1.641A.886.886,0,0,0,1.3.017.875.875,0,0,0,.276.686" transform="translate(41.75 85.308)" fill="#ea6887"/>
      <path id="Fill_47" data-name="Fill 47" d="M1.359.455.1,2.881a.867.867,0,0,0,1.54.8L2.9,1.251a.867.867,0,0,0-1.54-.8" transform="translate(47.844 83.072)" fill="#ea6887"/>
      <path id="Fill_49" data-name="Fill 49" d="M3.611.04.793,0C-.323-.016-.232,1.716.881,1.732l2.818.04C4.815,1.787,4.724.056,3.611.04" transform="translate(48.236 90.297)" fill="#ea6887"/>
      <path id="Fill_51" data-name="Fill 51" d="M3.49,1.262,1.251.1a.867.867,0,0,0-.8,1.54L2.694,2.8a.867.867,0,0,0,.8-1.54" transform="translate(46.739 95.425)" fill="#ea6887"/>
      <path id="Fill_53" data-name="Fill 53" d="M4.213,2.411A13.153,13.153,0,0,0,1.237.117c-.971-.552-1.766.989-.8,1.54A11.489,11.489,0,0,1,3.035,3.683c.778.8,1.951-.474,1.178-1.272" transform="translate(41.609 97.353)" fill="#ea6887"/>
      <path id="Fill_55" data-name="Fill 55" d="M3.145.042.586.815a.867.867,0,0,0,.525,1.652L3.67,1.694A.867.867,0,0,0,3.145.042" transform="translate(10.025 110.807)" fill="#ea6887"/>
      <path id="Fill_57" data-name="Fill 57" d="M.688,1.722l2.163.6a.875.875,0,0,0,1.028-.668A.884.884,0,0,0,3.21.628L1.047.026A.876.876,0,0,0,.019.694.883.883,0,0,0,.688,1.722" transform="translate(8.885 106.402)" fill="#ea6887"/>
      <path id="Fill_59" data-name="Fill 59" d="M.455,1.643l1.866.966a.867.867,0,0,0,.8-1.54L1.252.1a.868.868,0,0,0-.8,1.54" transform="translate(9.748 100.173)" fill="#ea6887"/>
      <path id="Fill_61" data-name="Fill 61" d="M.035,1.132.527,2.925a.873.873,0,0,0,1.088.563A.885.885,0,0,0,2.178,2.4L1.686.607A.874.874,0,0,0,.6.043.887.887,0,0,0,.035,1.132" transform="translate(17.233 98.495)" fill="#ea6887"/>
      <path id="Fill_63" data-name="Fill 63" d="M.471.688.027,2.232A.876.876,0,0,0,.695,3.26a.884.884,0,0,0,1.028-.668l.445-1.545A.876.876,0,0,0,1.5.019.884.884,0,0,0,.471.688" transform="translate(20.709 102.782)" fill="#ea6887"/>
      <path id="Fill_65" data-name="Fill 65" d="M1.612.282.228,1.814C-.521,2.642.751,3.819,1.5,2.991L2.885,1.46C3.633.632,2.36-.546,1.612.282" transform="translate(30.748 107.864)" fill="#ea6887"/>
      <path id="Fill_67" data-name="Fill 67" d="M1.869.275A6.588,6.588,0,0,1,.374,1.753c-.911.64.014,2.107.927,1.464a8,8,0,0,0,1.84-1.765A.893.893,0,0,0,3.093.227.873.873,0,0,0,1.869.275" transform="translate(35.797 108.134)" fill="#ea6887"/>
      <path id="Fill_69" data-name="Fill 69" d="M3.625.031a9.094,9.094,0,0,1-2.8.249A.873.873,0,0,0,0,1.19a.889.889,0,0,0,.91.821A10.532,10.532,0,0,0,4.15,1.683C5.232,1.407,4.7-.244,3.625.031" transform="translate(39.162 112.05)" fill="#ea6887"/>
      <path id="Fill_71" data-name="Fill 71" d="M3.852,1.02,1.049.034A.874.874,0,0,0,.022.7.89.89,0,0,0,.69,1.731l2.8.985a.873.873,0,0,0,1.028-.668A.89.89,0,0,0,3.852,1.02" transform="translate(38.4 116.3)" fill="#ea6887"/>
      <path id="Fill_73" data-name="Fill 73" d="M5.555,3.751,1.469.218C.626-.511-.554.761.291,1.491L4.377,5.024c.844.73,2.022-.542,1.177-1.273" transform="translate(31.442 116.276)" fill="#ea6887"/>
      <path id="Fill_75" data-name="Fill 75" d="M3.3,1.165,1.251.1a.867.867,0,0,0-.8,1.539L2.507,2.705a.867.867,0,0,0,.8-1.54" transform="translate(26.923 118.41)" fill="#ea6887"/>
    </g>
    <g id="Group_3-11" data-name="Group 3" transform="translate(255.674 166.695) rotate(76)">
      <path id="Clip_2-13" data-name="Clip 2" d="M0,0H79.47V106.788H0Z" transform="translate(0.458 0.664)" fill="none"/>
      <g id="Group_3-12" data-name="Group 3" clip-path="url(#clip-path-9)">
        <path id="Fill_1-6" data-name="Fill 1" d="M73.3,56.094c-3.364,4.305-4,11.9-4.123,14.647a91.5,91.5,0,0,0-5.13-9.091c8.129-16.12,8.09-35.037,8.09-35.037s-.759,4.153-5.09,14.667a43.538,43.538,0,0,0-3.382,19.783,81.494,81.494,0,0,0-5.628-7.6q-1.084-1.3-2.215-2.531c-.03-5.486,5.713-11.912,8.236-19.489C65.961,25.732,60.88,16.8,60.88,16.8S64.6,25.24,59.286,32.838c-4.244,6.067-3.845,14.77-3.512,18.031a72.617,72.617,0,0,0-7.639-7.223,126.975,126.975,0,0,0,3.6-12.34c1.478-6.435,2.16-21.47,2.16-21.47A76.722,76.722,0,0,0,48.88,23.129c-1.835,6.488-1.17,17.553-.965,20.338a70.056,70.056,0,0,0-7.02-5c.376-1.645,1.626-7.224,2.636-13.1C44.736,18.373,42.8,0,42.8,0s-.9,5.19-2.939,16.273c-1.751,9.526.191,19.434.772,22.029A70.006,70.006,0,0,0,33.8,34.6c-1.167-1.717-5.087-6.127-16.2-9.75C4.533,20.587,0,20.233,0,20.233S19.677,35.568,33.211,35.375a68.38,68.38,0,0,1,6.1,3.253,90.719,90.719,0,0,0-22.3,6.7C5.719,50.573,2.539,52.547,2.539,52.547s20.237-4.433,27.281-8.065a97.144,97.144,0,0,0,9.811-5.663,68.529,68.529,0,0,1,7.378,5.173c-2.7.47-12.951,2.565-19.131,8.15A30.349,30.349,0,0,1,12.888,59.6s7.648.912,18.366-6.02c8.889-5.75,14.33-8.631,15.928-9.447A72.268,72.268,0,0,1,55.3,51.823,35.221,35.221,0,0,0,38.982,57.43c-8.017,5.46-19.164,9.036-19.164,9.036s14.891-1.1,25.307-6.752c7.51-4.073,9.891-6.4,10.634-7.379a80.5,80.5,0,0,1,7.226,9.48,39.152,39.152,0,0,0-17.466,3.71c-10.369,4.616-18.385,8.2-18.385,8.2s27.471-4.148,36.1-11.523a90.869,90.869,0,0,1,5.316,9.448,21.65,21.65,0,0,0-13.6,2.594c-7.734,4.168-11.577,4.548-16.726,4.4,0,0,10.529,2.078,16.32-.525,6.772-3.044,10.67-6.233,14.058-6.354,1,2.05,1.877,4.047,2.652,5.956a105.827,105.827,0,0,1,7.252,28.62.477.477,0,0,0,.511.442.445.445,0,0,0,.1-.018.479.479,0,0,0,.341-.493A106.85,106.85,0,0,0,72.16,77.393q-1.278-3.152-2.728-6.135c1.08-1.971,5.052-9.164,7.971-13.724,3.408-5.325.9-20.411.9-20.411s-.839,13.644-5,18.97" transform="translate(0.458 0.664)" fill="#c477f8"/>
      </g>
    </g>
    <g id="Group_9" data-name="Group 9" transform="translate(88.591 44)">
      <g id="Group_3-13" data-name="Group 3">
        <path id="Clip_2-14" data-name="Clip 2" d="M0,0H112.548V225.924H0Z" transform="translate(0 0.069)" fill="none"/>
        <g id="Group_3-14" data-name="Group 3" clip-path="url(#clip-path-10)">
          <path id="Fill_1-7" data-name="Fill 1" d="M112.549,53.688h-1.24V19.682A19.673,19.673,0,0,0,91.645,0H19.664A19.673,19.673,0,0,0,0,19.682V206.243a19.673,19.673,0,0,0,19.664,19.682H91.645a19.673,19.673,0,0,0,19.664-19.682V77.894h1.24Z" transform="translate(0 0.069)" fill="#3f3d56"/>
        </g>
      </g>
      <path id="Fill_4-6" data-name="Fill 4" d="M87.118,0H77.711a6.991,6.991,0,0,1-6.467,9.637H29.956A7,7,0,0,1,23.489,0H14.7A14.713,14.713,0,0,0,0,14.724V201.336A14.713,14.713,0,0,0,14.7,216.06H87.118a14.713,14.713,0,0,0,14.7-14.724V14.724A14.713,14.713,0,0,0,87.118,0" transform="translate(4.967 4.967)" fill="#fff"/>
      <path id="Clip_7-2" data-name="Clip 7" d="M0,225.993H112.583V0H0Z" fill="none"/>
      <g id="蒙版组_1" data-name="蒙版组 1" clip-path="url(#clip-path-11)">
        <path id="Fill_6" data-name="Fill 6" d="M0,161.046a7,7,0,0,0,7,7H75.781a7,7,0,0,0,7-7V7a7,7,0,0,0-7-7H7A7,7,0,0,0,0,7Z" transform="translate(14.901 23.179)" fill="#fbfbfb"/>
        <path id="Fill_6_Copy_2" data-name="Fill 6 Copy 2" d="M0,15.351a7,7,0,0,0,7,7H34.391a7,7,0,0,0,7-7V7a7,7,0,0,0-7-7H7A7,7,0,0,0,0,7Z" transform="translate(25.647 43.874)" fill="#f4f4f4"/>
        <path id="Fill_6_Copy_9" data-name="Fill 6 Copy 9" d="M0,15.351a7,7,0,0,0,7,7H53a7,7,0,0,0,7-7V7a7,7,0,0,0-7-7H7A7,7,0,0,0,0,7Z" transform="translate(25.647 100)" fill="#f4f4f4"/>
        <path id="Fill_8" data-name="Fill 8" d="M8.278,0A8.278,8.278,0,1,1,0,8.278,8.278,8.278,0,0,1,8.278,0" transform="translate(48.013 197.02)" fill="#ededed"/>
      </g>
    </g>
    <g id="Group_42" data-name="Group 42" transform="translate(57.962 110.225)">
      <path id="Fill_1-8" data-name="Fill 1" d="M.039,8.3A18.652,18.652,0,0,0,.27,10.167s5.056,3.457,5.46-.407c.263-2.517-.332-3.654-.781-4.14l-.007-.008a1.57,1.57,0,0,1-.426-1.06V0L.067,1.423l.2,3.863A7.921,7.921,0,0,0,.039,8.3" transform="translate(12.417 146.523)" fill="#ffb9b9"/>
      <path id="Fill_3" data-name="Fill 3" d="M5.254.12S7.559-1.144,7.978,4.542,8.607,9.6,8.607,9.6,10.7,14.65,6.3,14.018-.2,12.965.014,10.438C.141,8.915.5,6.7.757,5.187A7.737,7.737,0,0,1,2.73,1.178C3.495.369,4.416-.255,5.254.12" transform="translate(10.762 152.318)" fill="#2f2e41"/>
      <path id="Fill_5" data-name="Fill 5" d="M1.2,11.95,3.58,13.1S11,14.252,8.645,10A17.334,17.334,0,0,1,7.1,5.97,27,27,0,0,1,6.276,0L0,.882c2.047,2.745,1.787,7.2,1.471,9.532-.128.94-.266,1.537-.266,1.537" transform="translate(38.907 148.179)" fill="#ffb9b9"/>
      <path id="Fill_7-3" data-name="Fill 7" d="M4.357,2.436S6.168-1.138,8.176.372s1.012,3.665,7.517,5.777,2.206,6.592-1.774,6.25S1.453,10.443,1.453,10.443-.753,3.851.271,3.7,2.708,8.417,4.357,2.436" transform="translate(38.907 153.974)" fill="#2f2e41"/>
      <path id="Fill_9-3" data-name="Fill 9" d="M12.713,3.349c2.638.215,5.411-1.536,5.216-3.349C19.19,2.047,16,4.367,12.986,4.121,8.923,3.79.261,2.23.261,2.23S.155,1.93,0,1.46c.252.045,8.711,1.563,12.713,1.889" transform="translate(40.563 161.424)" fill="#fff"/>
      <path id="Fill_11-2" data-name="Fill 11" d="M.025,0C.267,2.088,2.358,2.527,6.3,3.15c2.006.317,2.661-.667,2.781-1.832C9.215,2.81,8.832,4.479,6.3,4.079,1.9,3.383-.2,2.919.014.134.018.09.022.045.025,0" transform="translate(10.762 162.252)" fill="#fff"/>
      <path id="Fill_13-2" data-name="Fill 13" d="M.627,1.082.02,11.226S-.465,21.505,3.3,22.317,3.3,9.2,3.3,9.2V0Z" transform="translate(0.828 81.126)" fill="#fbbebe"/>
      <path id="Fill_17-2" data-name="Fill 17" d="M8,0S6.352,6.415,5.253,7.644-1.343,18.017.306,30.165,4.84,58.146,4.84,58.146s.412,5.6-.137,7.1S7.176,90.632,7.176,90.632s4.26,3.276,6.6-.819c0,0-.55-8.872,0-9.691s0-15.56,0-15.56.412-36.717,2.611-35.215,8.931,27.026,8.931,27.026S28.2,66.2,28.062,67.019s2.473,11.056,2.473,11.056,2.473,14.2,3.435,14.468,6.87.409,7.42-1.092l-1.649-12.83s-1.649-14.605-2.473-16.652-2.2-31.121-6.183-39.72c0,0-1.511-13.786-2.611-15.833A12.017,12.017,0,0,1,28.625.977S9.512,1.092,8,0" transform="translate(4.139 58.775)" fill="url(#linear-gradient)"/>
      <path id="Fill_19-2" data-name="Fill 19" d="M11.59,0c6.4,0,11.589,6.486,11.589,14.487S17.99,28.974,11.59,28.974,0,22.488,0,14.487,5.189,0,11.59,0" transform="translate(9.106 4.967)" fill="#db5e5e"/>
      <path id="Fill_21-2" data-name="Fill 21" d="M38.907,13.555l-1.765,3.828L16.229,23.536S1.7,27.774.2,20.938s5.7-7.52,5.7-7.52S8.624,11.5,12.019,9.59a2.96,2.96,0,0,0,1.509-2.777,5.816,5.816,0,0,0-.091-.973,8.314,8.314,0,0,0-.272-1.1,12.613,12.613,0,0,0-1.146-2.536S20.982-1.348,20.846.566a5.481,5.481,0,0,0,.218,2.045,8.084,8.084,0,0,0,.745,1.659c.152.264.322.537.511.827.244.376.523.777.835,1.212,1.765,2.461,7.6,2.461,7.6,2.461,4.617-.547,8.148,4.785,8.148,4.785" transform="translate(4.967 23.179)" fill="#fbbebe"/>
      <path id="Combined_Shape" data-name="Combined Shape" d="M4.532,48.315c-.491-.71-1.414-.454-2.32-.2a3.187,3.187,0,0,1-1.754.2C-.666,47.909.6,44.936.879,43.99S2.565,27.367,2.565,26.826s1.826-5.81,1.967-6.486,0-9.19,0-9.19l.087-.188-.238-.109S3.5,8.349,5.1,7.922s5.705-1.368,5.705-1.368S44.716-.969,44.853.105a8.352,8.352,0,0,0,1,2.378h.38s3.676,2.484,4.629,4.692,4.356,5.1,5.172,5.933S68.016,21.8,67.88,22.9s-3.267,2.208-3.4,3.449,1.362,1.794.409,1.794S58.079,24.7,55.9,23.455s-6.67-4.829-7.214-5.8-4.22-2.621-4.629-3.311c-.264-.446-3.023-1.925-4.946-2.919l-.685.766s.957,4.3-.957,5.24-2.188,8.06-3.965,8.194c-1.537.117-17.282-.069-21.606-.816-.12,2.464-.241,4.5-.343,4.85-.282.946-1.827,5.811-3.512,7.973S6.077,47.5,6.077,47.909c0,.277-.327.932-.8.932C5.052,48.841,4.8,48.7,4.532,48.315Z" transform="translate(0 35.596)" fill="url(#linear-gradient-2)"/>
      <path id="Fill_23-2" data-name="Fill 23" d="M2.791,0s9.57,6.951,11.431,6.82,12.76-.787,10.234,1.705S10.5,9.443,10.5,9.443L0,2.885Z" transform="translate(63.742 57.947)" fill="#fbbebe"/>
      <path id="Fill_27-2" data-name="Fill 27" d="M7.45,0A7.666,7.666,0,0,1,14.9,7.864a7.666,7.666,0,0,1-7.45,7.864A7.666,7.666,0,0,1,0,7.864,7.666,7.666,0,0,1,7.45,0" transform="translate(13.245 11.589)" fill="#fbbebe"/>
      <path id="Fill_33-2" data-name="Fill 33" d="M4.139,0A4.139,4.139,0,1,1,0,4.139,4.139,4.139,0,0,1,4.139,0" transform="translate(5.795 6.623)" fill="#db5e5e"/>
      <g id="Group_37" data-name="Group 37" transform="translate(24.834)">
        <path id="Clip_36-2" data-name="Clip 36" d="M0,0H8.823V8.823H0Z" transform="translate(0.034 0.203)" fill="none"/>
        <g id="Group_37-2" data-name="Group 37" clip-path="url(#clip-path-12)">
          <path id="Fill_35-2" data-name="Fill 35" d="M4.412,0A4.412,4.412,0,1,1,0,4.412,4.412,4.412,0,0,1,4.412,0" transform="translate(0.034 0.203)" fill="#db5e5e"/>
        </g>
      </g>
      <path id="Fill_38" data-name="Fill 38" d="M7.864,0c4.343,0,7.864,2.224,7.864,4.967S12.207,9.934,7.864,9.934,0,7.71,0,4.967,3.521,0,7.864,0" transform="translate(14.073 9.106)" fill="#db5e5e"/>
      <path id="Fill_40" data-name="Fill 40" d="M8.582,0A21.822,21.822,0,0,1,0,1.525a5.335,5.335,0,0,1,.093.946q.305.012.654.012A23.438,23.438,0,0,0,9.106.8Z" transform="translate(18.212 26.49)" fill="#db5e5e"/>
    </g>
    <g id="Group_4" data-name="Group 4" transform="translate(149.834 72.146)">
      <g transform="matrix(1, 0, 0, 1, -143.22, -72.15)" filter="url(#Rectangle)">
        <rect id="Rectangle-4" data-name="Rectangle" width="81.954" height="38.907" rx="7" transform="translate(143.22 72.15)" fill="#fff"/>
      </g>
      <rect id="Rectangle-5" data-name="Rectangle" width="22.351" height="3.311" rx="1.656" transform="translate(35.596 5.795)" fill="#ededed"/>
      <rect id="Rectangle_Copy_2" data-name="Rectangle Copy 2" width="38.079" height="3.311" rx="1.656" transform="translate(35.596 11.589)" fill="#ededed"/>
      <rect id="Rectangle_Copy_3" data-name="Rectangle Copy 3" width="38.079" height="3.311" rx="1.656" transform="translate(35.596 17.384)" fill="#ededed"/>
      <rect id="Rectangle_Copy_4" data-name="Rectangle Copy 4" width="38.079" height="9.934" rx="2" transform="translate(35.596 23.179)" fill="#ededed"/>
      <rect id="Rectangle_Copy_5" data-name="Rectangle Copy 5" width="24.834" height="27.318" rx="2" transform="translate(6.623 5.795)" fill="#ededed"/>
      <g id="user" transform="translate(12.417 11.589)">
        <path id="Path" d="M13.245,4.967V3.311A3.311,3.311,0,0,0,9.934,0H3.311A3.311,3.311,0,0,0,0,3.311V4.967" transform="translate(0 9.934)" fill="#d2cddb"/>
        <circle id="Oval-2" data-name="Oval" cx="3.311" cy="3.311" r="3.311" transform="translate(3.311 0)" fill="#d2cddb"/>
      </g>
    </g>
    <g id="Group_4_Copy" data-name="Group 4 Copy" transform="translate(177.152 116.02)">
      <g transform="matrix(1, 0, 0, 1, -170.54, -116.02)" filter="url(#Rectangle-2)">
        <rect id="Rectangle-6" data-name="Rectangle" width="81.954" height="38.907" rx="7" transform="translate(170.54 116.02)" fill="#fff"/>
      </g>
      <rect id="Rectangle-7" data-name="Rectangle" width="22.351" height="3.311" rx="1.656" transform="translate(35.596 5.795)" fill="#eee6ff"/>
      <rect id="Rectangle_Copy_2-2" data-name="Rectangle Copy 2" width="38.079" height="3.311" rx="1.656" transform="translate(35.596 11.589)" fill="#eee6ff"/>
      <rect id="Rectangle_Copy_3-2" data-name="Rectangle Copy 3" width="38.079" height="3.311" rx="1.656" transform="translate(35.596 17.384)" fill="#eee6ff"/>
      <rect id="Rectangle_Copy_4-2" data-name="Rectangle Copy 4" width="38.079" height="9.934" rx="2" transform="translate(35.596 23.179)" fill="#eee6ff"/>
      <rect id="Rectangle_Copy_5-2" data-name="Rectangle Copy 5" width="24.834" height="27.318" rx="2" transform="translate(6.623 5.795)" fill="#eee6ff"/>
      <g id="user-2" data-name="user" transform="translate(12.417 11.589)">
        <path id="Path-2" data-name="Path" d="M13.245,4.967V3.311A3.311,3.311,0,0,0,9.934,0H3.311A3.311,3.311,0,0,0,0,3.311V4.967" transform="translate(0 9.934)" fill="#cfbbf5"/>
        <circle id="Oval-3" data-name="Oval" cx="3.311" cy="3.311" r="3.311" transform="translate(3.311 0)" fill="#cfbbf5"/>
      </g>
    </g>
    <g id="Group_4_Copy_2" data-name="Group 4 Copy 2" transform="translate(165.563 162.377)">
      <g transform="matrix(1, 0, 0, 1, -158.95, -162.38)" filter="url(#Rectangle-3)">
        <rect id="Rectangle-8" data-name="Rectangle" width="81.954" height="38.907" rx="7" transform="translate(158.95 162.38)" fill="#fff"/>
      </g>
      <rect id="Rectangle-9" data-name="Rectangle" width="22.351" height="3.311" rx="1.656" transform="translate(35.596 5.795)" fill="#ededed"/>
      <rect id="Rectangle_Copy_2-3" data-name="Rectangle Copy 2" width="38.079" height="3.311" rx="1.656" transform="translate(35.596 11.589)" fill="#ededed"/>
      <rect id="Rectangle_Copy_3-3" data-name="Rectangle Copy 3" width="38.079" height="3.311" rx="1.656" transform="translate(35.596 17.384)" fill="#ededed"/>
      <rect id="Rectangle_Copy_4-3" data-name="Rectangle Copy 4" width="38.079" height="9.934" rx="2" transform="translate(35.596 23.179)" fill="#ededed"/>
      <rect id="Rectangle_Copy_5-3" data-name="Rectangle Copy 5" width="24.834" height="27.318" rx="2" transform="translate(6.623 5.795)" fill="#ededed"/>
      <g id="user-3" data-name="user" transform="translate(12.417 11.589)">
        <path id="Path-3" data-name="Path" d="M13.245,4.967V3.311A3.311,3.311,0,0,0,9.934,0H3.311A3.311,3.311,0,0,0,0,3.311V4.967" transform="translate(0 9.934)" fill="#d2cddb"/>
        <circle id="Oval-4" data-name="Oval" cx="3.311" cy="3.311" r="3.311" transform="translate(3.311 0)" fill="#d2cddb"/>
      </g>
    </g>
  </g>
</svg>
