<svg id="discount-voucher" xmlns="http://www.w3.org/2000/svg" width="21.334" height="16" viewBox="0 0 21.334 16">
  <path id="Path" d="M.889,0C.407,0,0,.611,0,1.333S.407,2.667.889,2.667s.889-.611.889-1.333S1.371,0,.889,0Z" transform="translate(13.333 8.889)" fill="#685984"/>
  <path id="Path-2" data-name="Path" d="M1.778,1.333C1.778.611,1.371,0,.889,0S0,.611,0,1.333.407,2.667.889,2.667,1.778,2.056,1.778,1.333Z" transform="translate(8.889 4.444)" fill="#685984"/>
  <path id="Shape" d="M1.778,16A1.78,1.78,0,0,1,0,14.222V10.667a.444.444,0,0,1,.445-.445,2.222,2.222,0,1,0,0-4.444A.444.444,0,0,1,0,5.333V1.778A1.78,1.78,0,0,1,1.778,0H19.555a1.78,1.78,0,0,1,1.778,1.778V5.333a.444.444,0,0,1-.445.445,2.222,2.222,0,0,0,0,4.444.444.444,0,0,1,.445.445v3.555A1.78,1.78,0,0,1,19.555,16Z" fill="#685984"/>
</svg>
