<svg xmlns="http://www.w3.org/2000/svg" width="53.495" height="19.034" viewBox="0 0 53.495 19.034">
  <g id="sedan" transform="translate(-0.541 -0.473)">
    <path id="Shape" d="M.036,4.544A3.94,3.94,0,0,1,0,4.036a4.036,4.036,0,0,1,8.073,0c0,.116-.007.231-.017.344a4.033,4.033,0,0,1-8.02.164Z" transform="translate(5.842 11.436)" fill="#6732cb"/>
    <path id="Shape-2" data-name="Shape" d="M.036,4.544A3.94,3.94,0,0,1,0,4.036a4.036,4.036,0,0,1,8.073,0c0,.116-.007.231-.017.344a4.033,4.033,0,0,1-8.02.164Z" transform="translate(39.36 11.436)" fill="#6732cb"/>
    <path id="Shape-3" data-name="Shape" d="M14.009,16.279a4.7,4.7,0,0,0,.158-.872c.011-.134.02-.27.02-.408a4.847,4.847,0,0,0-9.695,0,4.777,4.777,0,0,0,.041.608c.014.1.034.2.053.3A11.694,11.694,0,0,1,.76,15.019a5.748,5.748,0,0,1-.728-3.244A22.324,22.324,0,0,1,.814,9.338c.522-1.4,10.329-3.445,11.319-3.467,3.365-1.422,9.086-4.157,10.358-4.6C30.007-1.332,37.855.8,39.6,1.2s6.764,2.527,8.066,2.929a40.06,40.06,0,0,0,4.064.795.972.972,0,0,1,.824.961V8.872A2.775,2.775,0,0,1,53.5,11.1a3.5,3.5,0,0,1-1.575,3.147l-4.115.775-.1.008c0-.01,0-.018,0-.029a4.848,4.848,0,0,0-9.7,0,4.6,4.6,0,0,0,.042.608c.008.063.022.125.033.187l-24.063.484Z" transform="translate(0.54 0.474)" fill="#6732cb"/>
  </g>
</svg>
